<svg xmlns="http://www.w3.org/2000/svg" width="69" height="69.004" viewBox="0 0 69 69.004"><defs><style>.a{fill:#2bbe65;}</style></defs><path class="a" d="M62.1,49.3a6.715,6.715,0,0,0-2.982.69,11.5,11.5,0,0,0-15-6.8,10.3,10.3,0,0,0-7.26-6.239,33.686,33.686,0,0,1,3.4-9.775,3.45,3.45,0,0,0,1.076.185,2.49,2.49,0,0,0,.335-.015c3.835-.359,11.01-1.7,15.967-6.657s6.3-12.132,6.657-15.968a3.36,3.36,0,0,0-3.7-3.7c-3.836.359-11.012,1.7-15.97,6.654s-6.3,12.13-6.657,15.967a3.434,3.434,0,0,0,.473,2.094,35.6,35.6,0,0,0-3.87,10.919H34.5c-.181,0-.353.031-.532.04A28.537,28.537,0,0,0,29.423,28.9a3.436,3.436,0,0,0,.321-2.055c-.587-3.809-2.353-10.893-7.59-15.545S9.667,5.734,5.817,5.6A3.359,3.359,0,0,0,2.343,9.51C2.928,13.319,4.7,20.4,9.933,25.055s12.484,5.566,16.33,5.7h.123a3.458,3.458,0,0,0,1.357-.278,26.079,26.079,0,0,1,3.892,6.585,10.312,10.312,0,0,0-6.756,6.123,11.5,11.5,0,0,0-15,6.809A6.715,6.715,0,0,0,6.9,49.3a6.9,6.9,0,1,0,0,13.8,6.715,6.715,0,0,0,2.711-.568A10.336,10.336,0,0,0,27.889,65.76a8.618,8.618,0,0,0,13.225,0,10.336,10.336,0,0,0,18.278-3.228A6.715,6.715,0,0,0,62.1,63.1a6.9,6.9,0,1,0,0-13.8ZM46.25,9.3c4.445-4.445,11.027-5.664,14.556-5.994a1.144,1.144,0,0,1,.895.3A1.1,1.1,0,0,1,62,4.5c-.331,3.528-1.548,10.11-6,14.553-4.284,4.284-10.543,5.567-14.145,5.951A105.243,105.243,0,0,1,57.072,9.942a1.15,1.15,0,0,0-1.437-1.8A107.7,107.7,0,0,0,40.318,23.261c.409-3.631,1.724-9.754,5.932-13.961ZM4.615,9.165A1.06,1.06,0,0,1,5.693,7.9h.046c3.541.115,10.184.945,14.886,5.119,4.533,4.025,6.186,10.2,6.785,13.78-4.473-4.324-15.755-14.673-16.278-15.148a1.15,1.15,0,1,0-1.555,1.7C9.7,13.462,21.3,24.094,25.791,28.433c-3.647-.187-9.858-1.129-14.323-5.093C6.761,19.17,5.154,12.668,4.615,9.165ZM62.1,60.8a4.543,4.543,0,0,1-2.809-.988,1.15,1.15,0,0,0-1.849.774,8.042,8.042,0,0,1-15.248,2.53,1.15,1.15,0,0,0-1.022-.653h-.014a1.15,1.15,0,0,0-1.025.628,6.316,6.316,0,0,1-11.27,0,1.1,1.1,0,0,0-1.035-.628,1.15,1.15,0,0,0-1.022.653,8.042,8.042,0,0,1-15.248-2.53,1.15,1.15,0,0,0-1.849-.774A4.543,4.543,0,0,1,6.9,60.8a4.6,4.6,0,0,1,0-9.2,4.525,4.525,0,0,1,2.927,1.086,1.15,1.15,0,0,0,1.863-.652,9.2,9.2,0,0,1,13.349-6.246,1.15,1.15,0,0,0,1.659-.735,8.01,8.01,0,0,1,5.732-5.806,19.656,19.656,0,0,1,.884,4.537,5.97,5.97,0,0,0-1.93,1.253A1.15,1.15,0,0,0,33,46.667,2.859,2.859,0,0,1,34.5,45.85a2.854,2.854,0,0,1,1.487.813,1.15,1.15,0,0,0,1.626-1.626,6.063,6.063,0,0,0-1.866-1.226c.115-.991.324-2.645.669-4.6A8.013,8.013,0,0,1,42.3,45.057a1.15,1.15,0,0,0,1.659.735A9.2,9.2,0,0,1,57.31,52.037a1.15,1.15,0,0,0,1.863.652A4.525,4.525,0,0,1,62.1,51.6a4.6,4.6,0,0,1,0,9.2Z" transform="translate(0 -0.997)"/><path class="a" d="M19.75,45a1.15,1.15,0,0,0-1.15,1.15,1.15,1.15,0,0,1-2.3,0,1.15,1.15,0,1,0-2.3,0,3.45,3.45,0,1,0,6.9,0A1.15,1.15,0,0,0,19.75,45Z" transform="translate(2.1 5.603)"/><path class="a" d="M30.75,49a1.15,1.15,0,0,0-1.15,1.15,1.15,1.15,0,1,1-2.3,0,1.15,1.15,0,0,0-2.3,0,3.45,3.45,0,1,0,6.9,0A1.15,1.15,0,0,0,30.75,49Z" transform="translate(3.75 6.203)"/><path class="a" d="M43.75,43a1.15,1.15,0,0,0-1.15,1.15,1.15,1.15,0,0,1-2.3,0,1.15,1.15,0,1,0-2.3,0,3.45,3.45,0,0,0,6.9,0A1.15,1.15,0,0,0,43.75,43Z" transform="translate(5.7 5.303)"/><circle class="a" cx="1" cy="1" r="1" transform="translate(47.085 59.001)"/><circle class="a" cx="1" cy="1" r="1" transform="translate(54.085 53.001)"/><circle class="a" cx="1" cy="1" r="1" transform="translate(66.085 45.001)"/><ellipse class="a" cx="1" cy="1.5" rx="1" ry="1.5" transform="translate(37.085 49.001)"/><ellipse class="a" cx="1" cy="1.5" rx="1" ry="1.5" transform="translate(8.085 41.001)"/><circle class="a" cx="1" cy="1" r="1" transform="translate(60.085 43.001)"/><circle class="a" cx="1" cy="1" r="1" transform="translate(20.085 60.001)"/><circle class="a" cx="1" cy="1" r="1" transform="translate(13.085 37.001)"/></svg>