<svg xmlns="http://www.w3.org/2000/svg" width="60.665" height="65" viewBox="0 0 60.665 65"><defs><style>.a{fill:#2bbe65;}</style></defs><g transform="translate(-2 -2)"><path class="a" d="M21.394,35.718a16.25,16.25,0,0,0,22.98,0l-1.53-1.534a14.083,14.083,0,0,1-19.92,0Z" transform="translate(1.616 2.682)"/><path class="a" d="M24.223,32.892a11.91,11.91,0,0,0,16.85,0L39.541,31.36a9.75,9.75,0,0,1-13.787,0Z" transform="translate(1.852 2.447)"/><path class="a" d="M27.05,30.058a7.569,7.569,0,0,0,10.725,0l-1.538-1.525a5.4,5.4,0,0,1-7.648,0Z" transform="translate(2.087 2.211)"/><path class="a" d="M35.5,25.25a3.25,3.25,0,1,0-3.25,3.25,3.25,3.25,0,0,0,3.25-3.25Zm-4.333,0a1.083,1.083,0,1,1,1.083,1.083A1.083,1.083,0,0,1,31.167,25.25Z" transform="translate(2.25 1.667)"/><path class="a" d="M61.171,51.469a3.707,3.707,0,0,0-3.291-.591L43.011,55.25H34.777L28.927,52H39.917A1.083,1.083,0,0,0,41,50.917v-3.25a1.083,1.083,0,0,0-.317-.766l-2.167-2.167a1.083,1.083,0,0,0-.554-.3l-16.25-3.25a1.083,1.083,0,0,0-.212-.022H15a1.083,1.083,0,0,0-.4.077l-3.931,1.573V40.083A1.083,1.083,0,0,0,9.583,39h-6.5A1.083,1.083,0,0,0,2,40.083V61.75a1.083,1.083,0,0,0,1.083,1.083h6.5a1.083,1.083,0,0,0,1.083-1.083V59.583h3.075L26.574,63.86a1.083,1.083,0,0,0,.342.056h16.25a1.107,1.107,0,0,0,.361-.062l16.648-5.876a3.734,3.734,0,0,0,.994-6.51ZM8.5,60.667H4.167v-19.5H8.5Zm50.955-4.731L42.981,61.75H27.092L14.259,57.473a1.083,1.083,0,0,0-.342-.056h-3.25V45.15l4.541-1.817h6.184L37.215,46.5l1.618,1.617v1.718H24.75a1.083,1.083,0,0,0-.525,2.03l9.75,5.417a1.074,1.074,0,0,0,.525.136h8.667a1.084,1.084,0,0,0,.306-.044l15.019-4.417a1.567,1.567,0,0,1,.963,2.98Z" transform="translate(0 3.083)"/><path class="a" d="M48.417,2H18.083A1.083,1.083,0,0,0,17,3.083V5.25a16.25,16.25,0,1,0,32.5,0V3.083A1.083,1.083,0,0,0,48.417,2ZM32.167,4.167h2.167V6.333H32.167ZM47.333,5.25a14.083,14.083,0,1,1-28.167,0V4.167H30v3.25A1.083,1.083,0,0,0,31.083,8.5h4.333A1.083,1.083,0,0,0,36.5,7.417V4.167H47.333Z" transform="translate(1.25)"/></g></svg>