<svg xmlns="http://www.w3.org/2000/svg" width="53.969" height="64.013" viewBox="0 0 53.969 64.013"><defs><style>.a{fill:#2bbe65;fill-rule:evenodd;}</style></defs><g transform="translate(-0.001)"><path class="a" d="M164.554,96.4h-6.026a1.875,1.875,0,1,0,0,3.751h1.5l-4.285,4.285h-5.249a1.873,1.873,0,0,0-1.326.549L145.149,109a1.875,1.875,0,0,0,2.652,2.652l3.468-3.468h5.25a1.876,1.876,0,0,0,1.326-.549l4.834-4.834v1.5a1.875,1.875,0,1,0,3.751,0V98.274a1.876,1.876,0,0,0-1.875-1.875Zm0,0" transform="translate(-126.521 -84.346)"/><path class="a" d="M53.97,26.21C53.97,2.3,32.97,0,29.414,0,15.833,0,7.031,11.795,7.031,20.992v3.341L1.217,31.808a5.814,5.814,0,0,0,2.45,8.962l1.749.7L8.249,49.4a9.931,9.931,0,0,0,9.333,6.577H20.5l1.654,6.615a1.876,1.876,0,0,0,1.82,1.42h24.1a1.876,1.876,0,0,0,1.8-2.391L46.05,48.216l6.22-13.995a19.608,19.608,0,0,0,1.7-8.012ZM48.842,32.7l-6.5,14.617a1.878,1.878,0,0,0-.089,1.277l3.335,11.671H25.437l-1.654-6.615a1.875,1.875,0,0,0-1.819-1.42H17.582a6.173,6.173,0,0,1-5.8-4.088L8.664,39.411A1.873,1.873,0,0,0,7.594,38.3L5.061,37.287a2.066,2.066,0,0,1-.883-3.176l5.948-7.648a3.136,3.136,0,0,0,.657-1.914V20.992c0-5.038,5.337-17.241,18.634-17.241,2.946,0,20.8,1.792,20.8,22.459A15.877,15.877,0,0,1,48.842,32.7Zm0,0" transform="translate(0)"/></g></svg>