<svg xmlns="http://www.w3.org/2000/svg" width="72.333" height="72.333" viewBox="0 0 72.333 72.333"><defs><style>.a{fill:#2bbe65;}</style></defs><g transform="translate(-0.002 -0.001)"><path class="a" d="M82.155,180.734a1.412,1.412,0,1,0,1.413,1.412A1.413,1.413,0,0,0,82.155,180.734Z" transform="translate(-69.334 -155.199)"/><path class="a" d="M52.4,42.415a1.412,1.412,0,0,0-1-.414,1.428,1.428,0,0,0-1,.414l-1,1-3.246-3.245a25.428,25.428,0,1,0-5.994,5.994l3.246,3.246-1,1a1.414,1.414,0,0,0,0,2l17.86,17.859a7.062,7.062,0,1,0,9.987-9.987ZM45.411,47.41l-3.025-3.025c.351-.315.7-.638,1.027-.971s.656-.676.971-1.027l3.025,3.025ZM9.452,41.416a22.6,22.6,0,1,1,31.964,0A22.589,22.589,0,0,1,9.452,41.416Zm41.952,4,3.995,4L49.407,55.4l-4-3.995Zm16.86,22.854a4.231,4.231,0,0,1-5.992,0L51.4,57.4,57.4,51.4,68.265,62.274A4.231,4.231,0,0,1,68.265,68.265Z" transform="translate(0 0)"/><path class="a" d="M73.855,45.813a19.777,19.777,0,1,0,0,27.969A19.771,19.771,0,0,0,73.855,45.813Zm-2,25.97a16.952,16.952,0,1,1,0-23.973A16.942,16.942,0,0,1,71.857,71.784Z" transform="translate(-34.437 -34.363)"/><path class="a" d="M98.306,80.043a14.122,14.122,0,0,0-13.369,9.563,1.413,1.413,0,0,0,2.675.908,11.294,11.294,0,0,1,10.693-7.645,1.413,1.413,0,1,0,0-2.826Z" transform="translate(-72.872 -68.734)"/></g></svg>