<svg xmlns="http://www.w3.org/2000/svg" width="78" height="78" viewBox="0 0 78 78"><defs><style>.a{fill:#2bbe65;}</style></defs><g transform="translate(-16 -16)"><path class="a" d="M216,96h13v2.6H216Z" transform="translate(-167.5 -67)"/><path class="a" d="M216,128h13v2.6H216Z" transform="translate(-167.5 -93.8)"/><path class="a" d="M121,83.6V73.2a1.3,1.3,0,0,0-.936-1.248L89.8,63.125V47.2h9.1a1.3,1.3,0,0,0,1.3-1.3V25.1a1.3,1.3,0,0,0-.381-.919l-7.8-7.8A1.294,1.294,0,0,0,91.1,16h-13a1.3,1.3,0,0,0-1.3,1.3V45.9a1.3,1.3,0,0,0,1.3,1.3h9.1V63.125L56.936,71.952A1.3,1.3,0,0,0,56,73.2V83.6a1.3,1.3,0,0,0,.936,1.248l31.2,9.1a1.3,1.3,0,0,0,.728,0l31.2-9.1A1.3,1.3,0,0,0,121,83.6ZM92.4,20.438,95.762,23.8H92.4ZM79.4,18.6H89.8v6.5a1.3,1.3,0,0,0,1.3,1.3h6.5V44.6H79.4Zm7.8,47.233v6.829l-2.981-2.981-1.838,1.838,5.2,5.2a1.3,1.3,0,0,0,1.838,0l5.2-5.2-1.838-1.838L89.8,72.662V65.833L115.058,73.2,88.5,80.945,61.942,73.2Zm-28.6,9.1,28.6,8.342v7.692L58.6,82.625ZM89.8,90.967V83.275l28.6-8.342v7.692Z" transform="translate(-33.5)"/><path class="a" d="M216,64h5.2v2.6H216Z" transform="translate(-167.5 -40.2)"/><path class="a" d="M17.3,47.2h9.1a6.507,6.507,0,0,0,6.5,6.5h3.9a3.9,3.9,0,0,1,3.9,3.9v2.062l-2.981-2.981-1.838,1.838,5.2,5.2a1.3,1.3,0,0,0,1.838,0l5.2-5.2-1.838-1.838L43.3,59.662V57.6a6.507,6.507,0,0,0-6.5-6.5H32.9A3.9,3.9,0,0,1,29,47.2h9.1a1.3,1.3,0,0,0,1.3-1.3V25.1a1.3,1.3,0,0,0-.381-.919l-7.8-7.8A1.294,1.294,0,0,0,30.3,16h-13A1.3,1.3,0,0,0,16,17.3V45.9a1.3,1.3,0,0,0,1.3,1.3ZM31.6,20.438,34.962,23.8H31.6ZM18.6,18.6H29v6.5a1.3,1.3,0,0,0,1.3,1.3h6.5V44.6H18.6Z"/><path class="a" d="M48,96H61v2.6H48Z" transform="translate(-26.8 -67)"/><path class="a" d="M48,128H61v2.6H48Z" transform="translate(-26.8 -93.8)"/><path class="a" d="M48,160H61v2.6H48Z" transform="translate(-26.8 -120.6)"/><path class="a" d="M48,64h5.2v2.6H48Z" transform="translate(-26.8 -40.2)"/><path class="a" d="M330.463,45.9V25.1a1.3,1.3,0,0,0-.381-.919l-7.8-7.8a1.294,1.294,0,0,0-.919-.381h-13a1.3,1.3,0,0,0-1.3,1.3V45.9a1.3,1.3,0,0,0,1.3,1.3h9.1a3.9,3.9,0,0,1-3.9,3.9h-3.9a6.507,6.507,0,0,0-6.5,6.5v2.062l-2.981-2.981-1.838,1.838,5.2,5.2a1.3,1.3,0,0,0,1.838,0l5.2-5.2-1.838-1.838-2.981,2.981V57.6a3.9,3.9,0,0,1,3.9-3.9h3.9a6.507,6.507,0,0,0,6.5-6.5h9.1A1.3,1.3,0,0,0,330.463,45.9Zm-7.8-25.462,3.362,3.362h-3.362Zm-13,24.162v-26h10.4v6.5a1.3,1.3,0,0,0,1.3,1.3h6.5V44.6Z" transform="translate(-236.463)"/><path class="a" d="M384,96h13v2.6H384Z" transform="translate(-308.2 -67)"/><path class="a" d="M384,128h13v2.6H384Z" transform="translate(-308.2 -93.8)"/><path class="a" d="M384,160h13v2.6H384Z" transform="translate(-308.2 -120.6)"/><path class="a" d="M384,64h5.2v2.6H384Z" transform="translate(-308.2 -40.2)"/><path class="a" d="M216,160h2.6v2.6H216Z" transform="translate(-167.5 -120.6)"/><path class="a" d="M248,160h2.6v2.6H248Z" transform="translate(-194.3 -120.6)"/><path class="a" d="M280,160h2.6v2.6H280Z" transform="translate(-221.1 -120.6)"/></g></svg>