<svg xmlns="http://www.w3.org/2000/svg" width="77" height="77" viewBox="0 0 77 77"><defs><style>.a{fill:#2bbe65;}</style></defs><path class="a" d="M13.543,59.547a6.278,6.278,0,0,0-3.034.774A35.508,35.508,0,0,1,45.568,3.712a1.5,1.5,0,0,0,.6-2.949A38.789,38.789,0,0,0,38.5,0,38.5,38.5,0,0,0,8.285,62.36a6.319,6.319,0,1,0,5.258-2.813ZM15.882,68.2a3.308,3.308,0,1,1,.969-2.339A3.285,3.285,0,0,1,15.882,68.2Z"/><path class="a" d="M236.5,41.869a6.3,6.3,0,1,0-2.223,2.04,35.508,35.508,0,0,1-34.992,56.623,1.5,1.5,0,0,0-.59,2.95,38.813,38.813,0,0,0,7.591.748A38.5,38.5,0,0,0,236.5,41.869Zm-7.6-1.162a3.309,3.309,0,1,1,2.339.969A3.286,3.286,0,0,1,228.9,40.707Z" transform="translate(-167.784 -27.231)"/><path class="a" d="M95.151,127.238a1.5,1.5,0,0,0,1.5,1.5h9.4a1.5,1.5,0,0,0,1.5-1.5v-2.916a23.556,23.556,0,0,0,5.644-2.339l2.058,2.058a1.5,1.5,0,0,0,2.127,0l6.647-6.651a1.5,1.5,0,0,0,0-2.127l-2.056-2.056a23.549,23.549,0,0,0,2.339-5.644h2.9a1.5,1.5,0,0,0,1.5-1.5v-9.4a1.5,1.5,0,0,0-1.5-1.5h-2.905a23.554,23.554,0,0,0-2.339-5.644l2.045-2.045a1.5,1.5,0,0,0,0-2.128l-6.652-6.647a1.5,1.5,0,0,0-2.127,0l-2.042,2.043a23.551,23.551,0,0,0-5.644-2.339V75.5a1.5,1.5,0,0,0-1.5-1.5h-9.4a1.5,1.5,0,0,0-1.5,1.5v2.889a23.531,23.531,0,0,0-5.644,2.339l-2.043-2.043a1.5,1.5,0,0,0-2.127,0l-6.651,6.647a1.5,1.5,0,0,0,0,2.127l2.045,2.045a23.544,23.544,0,0,0-2.339,5.644h-2.9a1.5,1.5,0,0,0-1.5,1.5l-.005,9.4a1.5,1.5,0,0,0,1.5,1.5h2.9a23.548,23.548,0,0,0,2.339,5.644l-2.056,2.056a1.5,1.5,0,0,0,0,2.127l6.647,6.651a1.5,1.5,0,0,0,1.063.441h0a1.5,1.5,0,0,0,1.063-.441l2.058-2.058a23.576,23.576,0,0,0,5.644,2.339ZM90.1,118.82a1.5,1.5,0,0,0-1.88.2l-1.831,1.831-4.52-4.524,1.829-1.83a1.5,1.5,0,0,0,.2-1.879,20.582,20.582,0,0,1-2.849-6.875,1.5,1.5,0,0,0-1.47-1.188H76.992l0-6.4h2.579a1.5,1.5,0,0,0,1.47-1.188A20.585,20.585,0,0,1,83.895,90.1a1.5,1.5,0,0,0-.2-1.879L81.877,86.4l4.524-4.52L88.217,83.7a1.5,1.5,0,0,0,1.88.2,20.574,20.574,0,0,1,6.875-2.849,1.5,1.5,0,0,0,1.188-1.47V77.008h6.4v2.568a1.5,1.5,0,0,0,1.188,1.471,20.592,20.592,0,0,1,6.875,2.849,1.5,1.5,0,0,0,1.879-.2l1.816-1.816,4.524,4.52-1.818,1.818a1.5,1.5,0,0,0-.2,1.88,20.6,20.6,0,0,1,2.849,6.875,1.5,1.5,0,0,0,1.47,1.188h2.584v6.4h-2.584a1.5,1.5,0,0,0-1.47,1.188,20.58,20.58,0,0,1-2.849,6.874,1.5,1.5,0,0,0,.2,1.88l1.829,1.829-4.52,4.524L114.5,119.02a1.5,1.5,0,0,0-1.88-.2,20.6,20.6,0,0,1-6.875,2.849,1.5,1.5,0,0,0-1.188,1.47v2.595h-6.4V123.14a1.5,1.5,0,0,0-1.188-1.47A20.585,20.585,0,0,1,90.1,118.82Z" transform="translate(-62.857 -62.871)"/><path class="a" d="M198.224,185.8A12.427,12.427,0,1,0,185.8,198.224,12.441,12.441,0,0,0,198.224,185.8Zm-21.845,0a9.419,9.419,0,1,1,9.419,9.419A9.429,9.429,0,0,1,176.379,185.8Z" transform="translate(-147.298 -147.298)"/><path class="a" d="M339.582,20.818a1.505,1.505,0,1,0-1.063-.44A1.515,1.515,0,0,0,339.582,20.818Z" transform="translate(-287.234 -15.131)"/><path class="a" d="M155.863,474.359a1.5,1.5,0,1,0,1.063.441A1.516,1.516,0,0,0,155.863,474.359Z" transform="translate(-131.145 -403.02)"/></svg>