<svg xmlns="http://www.w3.org/2000/svg" width="33.959" height="46.135" viewBox="0 0 33.959 46.135"><defs><style>.a{fill:#2bbe65;}</style></defs><g transform="translate(-26.9 -4.749)"><path class="a" d="M43.878,50.884A16.877,16.877,0,0,0,60.859,34.15a49.53,49.53,0,0,0-.5-5.978A43.137,43.137,0,0,1,60.009,16.9a.8.8,0,0,0-1.09-.847,10.447,10.447,0,0,0-4.9,4.328A38.752,38.752,0,0,0,48.03,5.106a.792.792,0,0,0-.713-.355.8.8,0,0,0-.666.437,33.609,33.609,0,0,1-5.183,7.222,31.727,31.727,0,0,0-4.856,6.727A24.644,24.644,0,0,0,33.29,15.11c-.194-.2-.394-.4-.609-.625a.8.8,0,0,0-1.378.553c-.01,2.827-1,5.654-2.051,8.646C28.095,26.986,26.9,30.4,26.9,34.15A16.876,16.876,0,0,0,43.878,50.884Zm-6.822-8.308a17.575,17.575,0,0,1,.972-4.845,25.883,25.883,0,0,0,.824-3.262,11.692,11.692,0,0,1,1.7,2.479.8.8,0,0,0,1.478-.21,8.237,8.237,0,0,1,2.1-4.033,14.273,14.273,0,0,0,1.45-1.954,14.844,14.844,0,0,1,1.711,6.881.8.8,0,0,0,1.543.342,6.8,6.8,0,0,1,1.725-2.325,31.866,31.866,0,0,0,.052,4.805c.05.729.1,1.419.1,2.125a6.822,6.822,0,1,1-13.645,0Zm-6.292-18.36a36.068,36.068,0,0,0,2.02-7.328,26.051,26.051,0,0,1,3.275,4.319.791.791,0,0,0,.74.366.8.8,0,0,0,.669-.483,27.4,27.4,0,0,1,5.205-7.623,37.805,37.805,0,0,0,4.75-6.339,36.336,36.336,0,0,1,5.3,16.149.8.8,0,0,0,1.564.219,11.009,11.009,0,0,1,3.981-5.315,49.19,49.19,0,0,0,.5,10.188,48.24,48.24,0,0,1,.49,5.782,15.138,15.138,0,0,1-8.9,13.718,8.192,8.192,0,0,0,1.94-5.291c0-.763-.049-1.478-.1-2.236a29.328,29.328,0,0,1,.1-6.132.8.8,0,0,0-1.111-.831,6.952,6.952,0,0,0-2.476,1.847,16.354,16.354,0,0,0-2.523-6.568.8.8,0,0,0-1.4.124A10.859,10.859,0,0,1,42.9,31.67a10.075,10.075,0,0,0-1.887,2.944,5.621,5.621,0,0,0-2.563-2.3.8.8,0,0,0-1.077.749,15.829,15.829,0,0,1-.878,4.21,18.762,18.762,0,0,0-1.038,5.3,8.192,8.192,0,0,0,1.94,5.291A15.138,15.138,0,0,1,28.5,34.15c0-3.478,1.149-6.76,2.263-9.934Z" transform="translate(0 0)"/><path class="a" d="M34.438,58.284a.8.8,0,0,0-.965.593,19.288,19.288,0,0,0-.528,3.445.8.8,0,0,0,.757.844h.046a.8.8,0,0,0,.8-.756,17.773,17.773,0,0,1,.483-3.16A.8.8,0,0,0,34.438,58.284Z" transform="translate(-3.278 -29.023)"/></g></svg>