<svg xmlns="http://www.w3.org/2000/svg" width="49.175" height="43.75" viewBox="0 0 49.175 43.75"><defs><style>.a{fill:#2bbe65;}</style></defs><path class="a" d="M24.588,43.75a2.884,2.884,0,0,1-1.9-.714c-1.987-1.737-3.9-3.369-5.592-4.809l-.009-.007C12.132,34,7.854,30.351,4.877,26.759,1.55,22.744,0,18.937,0,14.779a15.37,15.37,0,0,1,3.9-10.5A13.223,13.223,0,0,1,13.737,0a12.369,12.369,0,0,1,7.726,2.667,15.808,15.808,0,0,1,3.124,3.262,15.809,15.809,0,0,1,3.124-3.262A12.369,12.369,0,0,1,35.438,0a13.224,13.224,0,0,1,9.836,4.281,15.369,15.369,0,0,1,3.9,10.5c0,4.159-1.549,7.966-4.877,11.98C41.321,30.351,37.044,34,32.09,38.218c-1.693,1.442-3.611,3.077-5.6,4.818a2.886,2.886,0,0,1-1.9.714ZM13.737,2.881A10.374,10.374,0,0,0,6.019,6.234,12.5,12.5,0,0,0,2.88,14.779c0,3.5,1.3,6.626,4.215,10.143,2.817,3.4,7.008,6.97,11.859,11.105l.009.007c1.7,1.446,3.619,3.084,5.62,4.834,2.013-1.753,3.939-3.395,5.639-4.842,4.851-4.135,9.041-7.7,11.859-11.1,2.914-3.517,4.214-6.645,4.214-10.143a12.5,12.5,0,0,0-3.138-8.545,10.374,10.374,0,0,0-7.718-3.353,9.554,9.554,0,0,0-5.965,2.065,13.978,13.978,0,0,0-3.324,3.846,1.818,1.818,0,0,1-3.124,0A13.965,13.965,0,0,0,19.7,4.946a9.553,9.553,0,0,0-5.964-2.065Zm0,0" transform="translate(0)"/></svg>