<svg xmlns="http://www.w3.org/2000/svg" width="46.333" height="46.339" viewBox="0 0 46.333 46.339"><defs><style>.a{fill:#2bbe65;}</style></defs><g transform="translate(-0.004 -0.003)"><g transform="translate(0.004 0.003)"><path class="a" d="M25.862,26.724A3.862,3.862,0,1,0,22,22.862,3.862,3.862,0,0,0,25.862,26.724Zm0-6.179a2.317,2.317,0,1,1-2.317,2.317A2.317,2.317,0,0,1,25.862,20.545Z" transform="translate(-5.012 -4.328)"/><path class="a" d="M37.317,28.634A2.317,2.317,0,1,0,35,26.317,2.317,2.317,0,0,0,37.317,28.634Zm0-3.089a.772.772,0,1,1-.772.772A.772.772,0,0,1,37.317,25.545Z" transform="translate(-7.971 -5.466)"/><path class="a" d="M18.317,33.634A2.317,2.317,0,1,0,16,31.317,2.317,2.317,0,0,0,18.317,33.634Zm0-3.089a.772.772,0,1,1-.772.772A.772.772,0,0,1,18.317,30.545Z" transform="translate(-3.646 -6.604)"/><path class="a" d="M25,35.634A4.634,4.634,0,1,0,29.634,31,4.634,4.634,0,0,0,25,35.634Zm7.724,0a3.089,3.089,0,1,1-3.089-3.089A3.089,3.089,0,0,1,32.724,35.634Z" transform="translate(-5.694 -7.059)"/><path class="a" d="M3.09,26.261A3.047,3.047,0,0,0,4.712,25.8a1.367,1.367,0,0,1,.785-.259c.99.052,2.46.161,4.056.386A13.433,13.433,0,0,0,10,27.593c-1.334,1.045-2.569,1.879-3.367,2.394a1.136,1.136,0,0,1-.672.135,3.131,3.131,0,0,0-2.2.755A3.088,3.088,0,0,0,7.316,35.89a3.038,3.038,0,0,0,1.189-1.221,1.372,1.372,0,0,1,.541-.607c.756-.386,2.657-1.22,3.726-1.674a13.7,13.7,0,0,0,1.209,1.191c-.66,1.642-1.354,3.045-1.733,3.775a1.076,1.076,0,0,1-.507.446,3.091,3.091,0,1,0,4.48,2.672,1.39,1.39,0,0,1,.168-.809c.541-.834,1.373-2.055,2.367-3.327a13.5,13.5,0,0,0,1.644.449c.107.946.361,3.244.4,4.13a1.087,1.087,0,0,1-.209.633A3.1,3.1,0,0,0,22.654,46.3a3.216,3.216,0,0,0,.517.039,3.082,3.082,0,0,0,3.089-3.089,3.045,3.045,0,0,0-.475-1.644,1.317,1.317,0,0,1-.245-.757c.052-.991.159-2.459.386-4.056a13.681,13.681,0,0,0,1.666-.456c1.094,1.4,1.959,2.695,2.4,3.387a1.081,1.081,0,0,1,.132.661,3.1,3.1,0,0,0,3.1,3.265,3.012,3.012,0,0,0,1.058-.19,3.089,3.089,0,0,0,1.6-4.443,3.038,3.038,0,0,0-1.21-1.177,1.39,1.39,0,0,1-.618-.551c-.451-.884-1.092-2.214-1.7-3.714a13.633,13.633,0,0,0,1.21-1.2c1.854.8,3.225,1.428,3.776,1.716a1.081,1.081,0,0,1,.45.511A3.094,3.094,0,1,0,42.1,30.532a3.054,3.054,0,0,0-1.674-.409,1.269,1.269,0,0,1-.761-.166c-1.183-.765-2.3-1.559-3.315-2.369a13.516,13.516,0,0,0,.435-1.662c1.753-.249,3.309-.348,4.128-.386a1.066,1.066,0,0,1,.638.216,3.089,3.089,0,1,0,1.7-5.674,3.045,3.045,0,0,0-1.622.463,1.42,1.42,0,0,1-.785.259c-.99-.052-2.46-.161-4.056-.386a13.41,13.41,0,0,0-.442-1.669c1.332-1.043,2.567-1.878,3.366-2.394a1.119,1.119,0,0,1,.67-.134,3.113,3.113,0,0,0,2.2-.755,3.09,3.09,0,1,0-4.751-3.792,1.373,1.373,0,0,1-.541.607c-.756.386-2.657,1.22-3.726,1.674a13.7,13.7,0,0,0-1.206-1.19c.66-1.642,1.354-3.045,1.733-3.775a1.081,1.081,0,0,1,.507-.446,3.089,3.089,0,1,0-4.066-4.306,3.045,3.045,0,0,0-.413,1.634,1.39,1.39,0,0,1-.168.809c-.541.834-1.372,2.054-2.367,3.326a13.642,13.642,0,0,0-1.644-.449c-.107-.95-.362-3.254-.4-4.134a1.065,1.065,0,0,1,.207-.623A3.089,3.089,0,1,0,20.082,3.09a3.051,3.051,0,0,0,.473,1.642,1.325,1.325,0,0,1,.246.762c-.044.845-.271,2.909-.413,4.06a13.424,13.424,0,0,0-1.637.45c-1.093-1.39-1.958-2.694-2.4-3.387a1.081,1.081,0,0,1-.131-.66,3.089,3.089,0,1,0-5.763,1.369A3.04,3.04,0,0,0,11.669,8.5a1.385,1.385,0,0,1,.618.551c.451.884,1.093,2.214,1.7,3.715a13.617,13.617,0,0,0-1.209,1.2C11.9,13.588,9.79,12.663,9,12.25a1.081,1.081,0,0,1-.45-.511A3.1,3.1,0,1,0,5.914,16.22a1.277,1.277,0,0,1,.759.166,40.293,40.293,0,0,1,3.314,2.37,13.576,13.576,0,0,0-.434,1.662c-1.75.248-3.307.348-4.127.386a1.081,1.081,0,0,1-.638-.216,3.089,3.089,0,1,0-1.7,5.673Zm12,12.559a2.88,2.88,0,0,0-.417,1.7,1.513,1.513,0,0,1-.207.815,1.545,1.545,0,1,1-2.033-2.156,2.573,2.573,0,0,0,1.183-1.12c.43-.829,1.027-2.052,1.622-3.476a13.941,13.941,0,0,0,2.018,1.165c-.9,1.18-1.657,2.292-2.166,3.072Zm17.59-.827A2.886,2.886,0,0,0,33.948,39.2a1.5,1.5,0,0,1,.6.585,1.545,1.545,0,1,1-2.881.684,2.576,2.576,0,0,0-.378-1.584c-.415-.649-1.2-1.832-2.2-3.137A13.825,13.825,0,0,0,31.1,34.579c.573,1.376,1.158,2.585,1.579,3.413Zm8.08-15.648a2.865,2.865,0,0,0,1.68-.489,1.586,1.586,0,0,1,1.99.316A1.545,1.545,0,0,1,42.4,24.462,2.6,2.6,0,0,0,40.838,24c-.768.035-2.185.124-3.814.337.032-.386.049-.772.049-1.164s-.017-.779-.049-1.165c1.474.192,2.811.289,3.739.338ZM31.251,7.523a2.88,2.88,0,0,0,.417-1.7,1.513,1.513,0,0,1,.207-.815,1.545,1.545,0,1,1,2.033,2.156,2.578,2.578,0,0,0-1.182,1.12c-.43.829-1.027,2.052-1.618,3.476A13.941,13.941,0,0,0,29.089,10.6c.9-1.18,1.652-2.292,2.162-3.072Zm-17.59.827A2.882,2.882,0,0,0,12.4,7.14a1.513,1.513,0,0,1-.6-.586,1.545,1.545,0,1,1,2.881-.679,2.575,2.575,0,0,0,.378,1.583c.5.785,1.262,1.913,2.2,3.138a13.913,13.913,0,0,0-2.017,1.169c-.572-1.377-1.156-2.587-1.579-3.415ZM7.512,15.088a2.76,2.76,0,0,0-1.669-.412,1.5,1.5,0,0,1-.833-.2,1.545,1.545,0,1,1,2.156-2.036,2.582,2.582,0,0,0,1.121,1.189c.8.416,2.767,1.281,3.87,1.76a1.545,1.545,0,0,0,1.773-.405,12.328,12.328,0,0,1,6.764-3.909,1.545,1.545,0,0,0,1.242-1.338c.134-1.172.365-3.272.41-4.158a2.826,2.826,0,0,0-.487-1.67,1.51,1.51,0,0,1-.232-.814,1.545,1.545,0,1,1,2.831.86A2.567,2.567,0,0,0,24,5.5c.041.894.275,3.039.411,4.239a1.545,1.545,0,0,0,1.241,1.336,12.317,12.317,0,0,1,6.762,3.907,1.549,1.549,0,0,0,1.776.4C35.267,14.91,37.2,14.059,38,13.654a2.872,2.872,0,0,0,1.2-1.252,1.525,1.525,0,0,1,.595-.609,1.545,1.545,0,0,1,1.8,2.5,1.585,1.585,0,0,1-1.112.386,2.6,2.6,0,0,0-1.591.376c-.83.534-2.108,1.4-3.486,2.477a1.552,1.552,0,0,0-.5,1.718,12.394,12.394,0,0,1,0,7.846,1.552,1.552,0,0,0,.5,1.716c1.059.831,2.217,1.653,3.44,2.444a2.786,2.786,0,0,0,1.668.415,1.477,1.477,0,0,1,.833.2,1.545,1.545,0,1,1-2.156,2.036,2.577,2.577,0,0,0-1.121-1.189c-.789-.412-2.762-1.28-3.869-1.76a1.545,1.545,0,0,0-1.776.405,12.27,12.27,0,0,1-7.291,4,.779.779,0,0,0-.646.663c-.288,1.861-.419,3.6-.477,4.739a2.809,2.809,0,0,0,.485,1.667,1.509,1.509,0,0,1,.235.817,1.543,1.543,0,1,1-2.828-.858,2.59,2.59,0,0,0,.463-1.551c-.042-.9-.275-3.039-.411-4.234a1.545,1.545,0,0,0-1.24-1.335,12.318,12.318,0,0,1-6.763-3.908,1.562,1.562,0,0,0-1.169-.531,1.536,1.536,0,0,0-.609.127c-1.081.471-3.012,1.322-3.811,1.727a2.872,2.872,0,0,0-1.2,1.252,1.521,1.521,0,0,1-.595.609,1.545,1.545,0,0,1-1.8-2.5,1.578,1.578,0,0,1,1.11-.386,2.615,2.615,0,0,0,1.59-.377c.829-.533,2.106-1.4,3.487-2.478a1.552,1.552,0,0,0,.5-1.718,12.394,12.394,0,0,1,0-7.843,1.552,1.552,0,0,0-.5-1.719c-1.053-.83-2.21-1.651-3.437-2.445ZM1.565,22.9a1.554,1.554,0,0,1,2.377-1.023,2.583,2.583,0,0,0,1.561.463c.927-.042,2.285-.136,3.813-.336-.032.386-.049.772-.049,1.163s.018.779.049,1.165c-1.474-.192-2.811-.289-3.739-.338a2.9,2.9,0,0,0-1.68.489,1.585,1.585,0,0,1-1.987-.312A1.54,1.54,0,0,1,1.568,22.9Z" transform="translate(-0.004 -0.003)"/></g></g></svg>