<svg xmlns="http://www.w3.org/2000/svg" width="37.453" height="47.333" viewBox="0 0 37.453 47.333"><defs><style>.a{fill:#2bbe65;}</style></defs><path class="a" d="M90.114,37.668a7.354,7.354,0,0,1-2.235-3.043c-1.926-4.075-2.33-9.816-2.33-13.914,0-.018,0-.035,0-.053A13.43,13.43,0,0,0,77.643,8.477v-3.2A5.274,5.274,0,0,0,72.379,0h-.436a5.274,5.274,0,0,0-5.264,5.273v3.2a13.43,13.43,0,0,0-7.907,12.234c0,4.1-.4,9.839-2.33,13.914a7.354,7.354,0,0,1-2.235,3.043,1.348,1.348,0,0,0-.741,1.533,1.411,1.411,0,0,0,1.391,1.084H65.022a7.14,7.14,0,0,0,14.278,0H89.464A1.411,1.411,0,0,0,90.855,39.2,1.348,1.348,0,0,0,90.114,37.668ZM69.452,5.273a2.5,2.5,0,0,1,2.491-2.495h.436A2.5,2.5,0,0,1,74.87,5.273v2.3a13.431,13.431,0,0,0-5.418,0v-2.3Zm2.709,39.282a4.376,4.376,0,0,1-4.366-4.27h8.731A4.376,4.376,0,0,1,72.161,44.555Zm5.584-7.048H58.018a14.534,14.534,0,0,0,.727-1.276c1.859-3.665,2.8-8.887,2.8-15.521a10.615,10.615,0,1,1,21.23,0c0,.017,0,.034,0,.051.005,6.607.948,11.811,2.8,15.465a14.544,14.544,0,0,0,.727,1.276Z" transform="translate(-53.434)"/></svg>