<svg xmlns="http://www.w3.org/2000/svg" width="53.5" height="53.5" viewBox="0 0 53.5 53.5"><defs><style>.a{fill:#2bbe65;}</style></defs><g transform="translate(0)"><path class="a" d="M53.142,135.945c-4.863-5.924-15.157-12.838-26.393-12.838-11.276,0-21.571,6.961-26.393,12.838a1.573,1.573,0,0,0,0,2c4.978,6.068,15.3,12.838,26.393,12.838,11.491,0,21.742-7.171,26.393-12.838A1.574,1.574,0,0,0,53.142,135.945Zm-15.7,1a10.689,10.689,0,1,1-10.689-10.689A10.7,10.7,0,0,1,37.438,136.943Zm-33.74,0a38.005,38.005,0,0,1,12.036-8.363,13.8,13.8,0,0,0,0,16.723A37.312,37.312,0,0,1,3.7,136.943Zm34.066,8.362a13.8,13.8,0,0,0,0-16.723,37.318,37.318,0,0,1,12.034,8.36A38,38,0,0,1,37.764,145.305Z" transform="translate(0 -110.193)"/><path class="a" d="M204,209.35a5.35,5.35,0,1,0,5.35-5.35A5.356,5.356,0,0,0,204,209.35Zm7.553,0a2.2,2.2,0,1,1-2.2-2.2A2.205,2.205,0,0,1,211.553,209.35Z" transform="translate(-182.6 -182.6)"/><path class="a" d="M241.574,6.819a1.574,1.574,0,0,0,1.574-1.574V1.574a1.574,1.574,0,0,0-3.147,0V5.245A1.574,1.574,0,0,0,241.574,6.819Z" transform="translate(-214.824)"/><path class="a" d="M337.723,28.641a1.574,1.574,0,0,0,2.146-.587l2.094-3.672a1.573,1.573,0,1,0-2.734-1.559l-2.094,3.672A1.574,1.574,0,0,0,337.723,28.641Z" transform="translate(-301.585 -19.718)"/><path class="a" d="M125.405,28.054a1.574,1.574,0,0,0,2.734-1.559l-2.094-3.672a1.574,1.574,0,0,0-2.734,1.559Z" transform="translate(-110.191 -19.718)"/><path class="a" d="M241.574,445A1.574,1.574,0,0,0,240,446.574v3.672a1.574,1.574,0,0,0,3.147,0v-3.672A1.574,1.574,0,0,0,241.574,445Z" transform="translate(-214.824 -398.319)"/><path class="a" d="M127.552,423.174a1.574,1.574,0,0,0-2.146.587l-2.094,3.672a1.574,1.574,0,1,0,2.734,1.559l2.094-3.672A1.573,1.573,0,0,0,127.552,423.174Z" transform="translate(-110.191 -378.597)"/><path class="a" d="M339.87,423.76a1.573,1.573,0,1,0-2.734,1.559l2.094,3.672a1.573,1.573,0,1,0,2.734-1.559Z" transform="translate(-301.585 -378.596)"/></g></svg>