<svg xmlns="http://www.w3.org/2000/svg" width="46.667" height="46.667" viewBox="0 0 46.667 46.667"><defs><style>.a{fill:#2bbe65;}</style></defs><path class="a" d="M24.8,46.667H21.869a4.3,4.3,0,0,1-4.3-4.3V41.38a18.84,18.84,0,0,1-2.926-1.214l-.7.7a4.3,4.3,0,0,1-6.076,0L5.8,38.8a4.3,4.3,0,0,1,0-6.076l.7-.7a18.841,18.841,0,0,1-1.214-2.926H4.3A4.3,4.3,0,0,1,0,24.8V21.869a4.3,4.3,0,0,1,4.3-4.3h.991A18.845,18.845,0,0,1,6.5,14.648l-.7-.7a4.3,4.3,0,0,1,0-6.076L7.87,5.8a4.3,4.3,0,0,1,6.076,0l.7.7a18.858,18.858,0,0,1,2.926-1.214V4.3a4.3,4.3,0,0,1,4.3-4.3H24.8a4.3,4.3,0,0,1,4.3,4.3v.991A18.84,18.84,0,0,1,32.019,6.5l.7-.7a4.3,4.3,0,0,1,6.076,0l2.07,2.07a4.3,4.3,0,0,1,0,6.076l-.7.7a18.842,18.842,0,0,1,1.214,2.926h.991a4.3,4.3,0,0,1,4.3,4.3V24.8a4.3,4.3,0,0,1-4.3,4.3H41.38a18.846,18.846,0,0,1-1.214,2.926l.7.7a4.3,4.3,0,0,1,0,6.076l-2.07,2.07a4.3,4.3,0,0,1-6.076,0l-.7-.7a18.858,18.858,0,0,1-2.926,1.214v.991A4.3,4.3,0,0,1,24.8,46.667ZM15.1,37.294a16.116,16.116,0,0,0,4.177,1.734,1.367,1.367,0,0,1,1.026,1.324v2.019a1.563,1.563,0,0,0,1.562,1.562H24.8a1.563,1.563,0,0,0,1.562-1.562V40.352a1.367,1.367,0,0,1,1.026-1.324,16.116,16.116,0,0,0,4.177-1.734,1.367,1.367,0,0,1,1.663.21l1.43,1.43a1.561,1.561,0,0,0,2.208,0l2.071-2.071a1.561,1.561,0,0,0,0-2.208L37.5,33.225a1.367,1.367,0,0,1-.21-1.663,16.113,16.113,0,0,0,1.734-4.177,1.367,1.367,0,0,1,1.324-1.025h2.019A1.563,1.563,0,0,0,43.933,24.8V21.869a1.563,1.563,0,0,0-1.562-1.562H40.352a1.367,1.367,0,0,1-1.324-1.025A16.116,16.116,0,0,0,37.295,15.1a1.367,1.367,0,0,1,.21-1.663l1.43-1.43a1.561,1.561,0,0,0,0-2.208L36.864,7.733a1.561,1.561,0,0,0-2.208,0l-1.43,1.431a1.367,1.367,0,0,1-1.663.21,16.116,16.116,0,0,0-4.177-1.734A1.367,1.367,0,0,1,26.36,6.315V4.3A1.563,1.563,0,0,0,24.8,2.734H21.869A1.563,1.563,0,0,0,20.308,4.3V6.315a1.367,1.367,0,0,1-1.026,1.324A16.116,16.116,0,0,0,15.1,9.373a1.367,1.367,0,0,1-1.663-.21l-1.43-1.43a1.561,1.561,0,0,0-2.208,0L7.733,9.8a1.561,1.561,0,0,0,0,2.208l1.431,1.431a1.367,1.367,0,0,1,.21,1.663,16.113,16.113,0,0,0-1.734,4.177,1.367,1.367,0,0,1-1.324,1.025H4.3a1.564,1.564,0,0,0-1.562,1.562V24.8A1.563,1.563,0,0,0,4.3,26.36H6.315a1.367,1.367,0,0,1,1.324,1.025,16.116,16.116,0,0,0,1.734,4.177,1.367,1.367,0,0,1-.21,1.663l-1.43,1.43a1.561,1.561,0,0,0,0,2.208L9.8,38.934a1.561,1.561,0,0,0,2.208,0l1.43-1.431a1.374,1.374,0,0,1,1.663-.21Z"/><path class="a" d="M154.754,164.907a10.154,10.154,0,1,1,10.154-10.154A10.165,10.165,0,0,1,154.754,164.907Zm0-17.573a7.419,7.419,0,1,0,7.419,7.419A7.428,7.428,0,0,0,154.754,147.334Z" transform="translate(-131.42 -131.42)"/></svg>